<svg width="35" height="35" viewBox="0 0 35 35" fill="none" xmlns="http://www.w3.org/2000/svg">
<g opacity="0.5">
<mask id="mask0_1_21" style="mask-type:alpha" maskUnits="userSpaceOnUse" x="0" y="0" width="35" height="35">
<rect width="35" height="35" fill="#D9D9D9"/>
</mask>
<g mask="url(#mask0_1_21)">
<path d="M17.5 32.0834C15.4827 32.0834 13.5868 31.7006 11.8125 30.935C10.0382 30.1693 8.49481 29.1303 7.18231 27.8178C5.86981 26.5053 4.83075 24.9619 4.06512 23.1876C3.2995 21.4133 2.91669 19.5174 2.91669 17.5001C2.91669 15.4827 3.2995 13.5869 4.06512 11.8126C4.83075 10.0383 5.86981 8.49487 7.18231 7.18237C8.49481 5.86987 10.0382 4.83081 11.8125 4.06519C13.5868 3.29956 15.4827 2.91675 17.5 2.91675C19.5174 2.91675 21.4132 3.29956 23.1875 4.06519C24.9618 4.83081 26.5052 5.86987 27.8177 7.18237C29.1302 8.49487 30.1693 10.0383 30.9349 11.8126C31.7005 13.5869 32.0834 15.4827 32.0834 17.5001C32.0834 19.5174 31.7005 21.4133 30.9349 23.1876C30.1693 24.9619 29.1302 26.5053 27.8177 27.8178C26.5052 29.1303 24.9618 30.1693 23.1875 30.935C21.4132 31.7006 19.5174 32.0834 17.5 32.0834ZM17.5 29.1667C20.757 29.1667 23.5156 28.0365 25.7761 25.7761C28.0365 23.5157 29.1667 20.757 29.1667 17.5001C29.1667 14.2431 28.0365 11.4845 25.7761 9.22404C23.5156 6.96362 20.757 5.83341 17.5 5.83341C14.2431 5.83341 11.4844 6.96362 9.22398 9.22404C6.96356 11.4845 5.83335 14.2431 5.83335 17.5001C5.83335 20.757 6.96356 23.5157 9.22398 25.7761C11.4844 28.0365 14.2431 29.1667 17.5 29.1667Z" fill="#DAB49B"/>
<path d="M16.1328 20.599H18.8672L18.3431 17.6595C18.6469 17.5076 18.8862 17.2873 19.0609 16.9987C19.2355 16.7101 19.3229 16.3911 19.3229 16.0417C19.3229 15.5404 19.1444 15.1112 18.7874 14.7542C18.4304 14.3972 18.0013 14.2188 17.5 14.2188C16.9987 14.2188 16.5695 14.3972 16.2125 14.7542C15.8556 15.1112 15.6771 15.5404 15.6771 16.0417C15.6771 16.3911 15.7644 16.7101 15.9391 16.9987C16.1138 17.2873 16.3531 17.5076 16.6569 17.6595L16.1328 20.599ZM17.5 26.9792C15.3884 26.4475 13.6453 25.236 12.2705 23.3447C10.8957 21.4535 10.2083 19.3533 10.2083 17.0443V11.4844L17.5 8.75L24.7916 11.4844V17.0443C24.7916 19.3533 24.1043 21.4535 22.7295 23.3447C21.3547 25.236 19.6115 26.4475 17.5 26.9792Z" fill="#DAB49B"/>
</g>
</g>
</svg>
