<svg width="35" height="35" viewBox="0 0 35 35" fill="none" xmlns="http://www.w3.org/2000/svg">
<g opacity="0.5">
<mask id="mask0_1_10" style="mask-type:alpha" maskUnits="userSpaceOnUse" x="0" y="0" width="35" height="35">
<rect width="35" height="35" fill="#D9D9D9"/>
</mask>
<g mask="url(#mask0_1_10)">
<path d="M8.53127 24.9376C9.77085 23.9897 11.1563 23.2423 12.6875 22.6954C14.2188 22.1485 15.8229 21.8751 17.5 21.8751C19.1771 21.8751 20.7813 22.1485 22.3125 22.6954C23.8438 23.2423 25.2292 23.9897 26.4688 24.9376C27.3195 23.9411 27.9818 22.8108 28.4557 21.547C28.9297 20.2831 29.1667 18.9341 29.1667 17.5001C29.1667 14.2674 28.0304 11.5148 25.7578 9.24227C23.4853 6.9697 20.7327 5.83341 17.5 5.83341C14.2674 5.83341 11.5148 6.9697 9.24221 9.24227C6.96964 11.5148 5.83335 14.2674 5.83335 17.5001C5.83335 18.9341 6.07033 20.2831 6.54429 21.547C7.01825 22.8108 7.68058 23.9411 8.53127 24.9376ZM17.5 18.9584C16.066 18.9584 14.8568 18.4662 13.8724 17.4819C12.888 16.4975 12.3959 15.2883 12.3959 13.8542C12.3959 12.4202 12.888 11.211 13.8724 10.2266C14.8568 9.24227 16.066 8.75008 17.5 8.75008C18.934 8.75008 20.1432 9.24227 21.1276 10.2266C22.112 11.211 22.6042 12.4202 22.6042 13.8542C22.6042 15.2883 22.112 16.4975 21.1276 17.4819C20.1432 18.4662 18.934 18.9584 17.5 18.9584ZM17.5 32.0834C15.4827 32.0834 13.5868 31.7006 11.8125 30.935C10.0382 30.1693 8.49481 29.1303 7.18231 27.8178C5.86981 26.5053 4.83075 24.9619 4.06512 23.1876C3.2995 21.4133 2.91669 19.5174 2.91669 17.5001C2.91669 15.4827 3.2995 13.5869 4.06512 11.8126C4.83075 10.0383 5.86981 8.49487 7.18231 7.18237C8.49481 5.86987 10.0382 4.83081 11.8125 4.06519C13.5868 3.29956 15.4827 2.91675 17.5 2.91675C19.5174 2.91675 21.4132 3.29956 23.1875 4.06519C24.9618 4.83081 26.5052 5.86987 27.8177 7.18237C29.1302 8.49487 30.1693 10.0383 30.9349 11.8126C31.7005 13.5869 32.0834 15.4827 32.0834 17.5001C32.0834 19.5174 31.7005 21.4133 30.9349 23.1876C30.1693 24.9619 29.1302 26.5053 27.8177 27.8178C26.5052 29.1303 24.9618 30.1693 23.1875 30.935C21.4132 31.7006 19.5174 32.0834 17.5 32.0834Z" fill="#DAB49B"/>
</g>
</g>
</svg>
